<?xml version="1.0" encoding="UTF-8" standalone="no"?>
<!-- Created with Inkscape (http://www.inkscape.org/) -->

<svg
   xmlns:dc="http://purl.org/dc/elements/1.1/"
   xmlns:cc="http://creativecommons.org/ns#"
   xmlns:rdf="http://www.w3.org/1999/02/22-rdf-syntax-ns#"
   xmlns:svg="http://www.w3.org/2000/svg"
   xmlns="http://www.w3.org/2000/svg"
   xmlns:xlink="http://www.w3.org/1999/xlink"
   xmlns:sodipodi="http://sodipodi.sourceforge.net/DTD/sodipodi-0.dtd"
   xmlns:inkscape="http://www.inkscape.org/namespaces/inkscape"
   width="210mm"
   height="297mm"
   viewBox="0 0 210 297"
   version="1.1"
   id="svg8"
   inkscape:version="0.92.4 (5da689c313, 2019-01-14)"
   sodipodi:docname="LOGOTIPO.svg">
  <defs
     id="defs2">
    <linearGradient
       inkscape:collect="always"
       id="linearGradient900">
      <stop
         style="stop-color:#3bc620;stop-opacity:1;"
         offset="0"
         id="stop896" />
      <stop
         style="stop-color:#3bc620;stop-opacity:0;"
         offset="1"
         id="stop898" />
    </linearGradient>
    <linearGradient
       inkscape:collect="always"
       xlink:href="#linearGradient900"
       id="linearGradient904"
       x1="31.983509"
       y1="131.75691"
       x2="163.58417"
       y2="131.75691"
       gradientUnits="userSpaceOnUse" />
  </defs>
  <sodipodi:namedview
     id="base"
     pagecolor="#ffffff"
     bordercolor="#666666"
     borderopacity="1.0"
     inkscape:pageopacity="0.0"
     inkscape:pageshadow="2"
     inkscape:zoom="1.350566"
     inkscape:cx="393.62831"
     inkscape:cy="533.41017"
     inkscape:document-units="mm"
     inkscape:current-layer="layer10"
     showgrid="false"
     inkscape:snap-text-baseline="true"
     inkscape:window-width="1366"
     inkscape:window-height="705"
     inkscape:window-x="-8"
     inkscape:window-y="-8"
     inkscape:window-maximized="1" />
  <metadata
     id="metadata5">
    <rdf:RDF>
      <cc:Work
         rdf:about="">
        <dc:format>image/svg+xml</dc:format>
        <dc:type
           rdf:resource="http://purl.org/dc/dcmitype/StillImage" />
        <dc:title />
      </cc:Work>
    </rdf:RDF>
  </metadata>
  <g
     inkscape:groupmode="layer"
     id="layer10"
     inkscape:label="Reflejo plato"
     sodipodi:insensitive="true"
     style="display:inline">
    <path
       style="fill:#f0b2d7;fill-opacity:0.83921569;stroke:#f0b2d7;stroke-width:0.26458332px;stroke-linecap:butt;stroke-linejoin:miter;stroke-opacity:0.83417089"
       d="m 96.760529,165.26173 -2.632033,-1.10828 -1.15303,-0.6657 -1.410946,-1.41095 -1.384017,-1.80208 -1.375315,-2.38212 -1.274818,-2.20805 -0.646533,-2.41289 v -2.90156 -2.56273 l 0.815697,-3.04423 1.235115,-2.13928 1.20804,-2.09239 1.956636,-1.95663 1.890646,-1.57251 1.939367,-1.316 2.077889,-1.03894 2.285683,-0.69263 2.35494,-0.41558 4.15579,-0.0693 2.49347,0.34631 2.70126,0.76189 3.53245,1.66229 v 0 l 1.73158,1.24673 1.87006,2.21645 1.24674,1.66231 1.17747,2.00863 0.96968,2.42421 0.48484,2.70126 0.20779,2.70126 -0.48484,2.21642 -0.83116,2.21641 -0.69263,1.80084 -1.59305,2.07789 -1.93936,2.28569 -2.35495,2.07789 -2.74574,1.58525 -2.40192,1.38675 -5.58811,0.56045 -1.80084,-0.0693 -2.35495,-0.48484 -1.315959,-0.27698 z"
       id="path917"
       inkscape:connector-curvature="0" />
  </g>
  <g
     inkscape:groupmode="layer"
     id="layer2"
     inkscape:label="Plato"
     style="display:inline"
     sodipodi:insensitive="true">
    <path
       style="display:inline;fill:#9dc3ce;fill-opacity:1;stroke:#9dc3ce;stroke-width:0.26458332px;stroke-linecap:butt;stroke-linejoin:miter;stroke-opacity:1"
       d="m 100.43143,166.85471 2.35495,0.48484 1.80084,0.0693 2.49347,-0.48484 2.21642,-0.62337 1.8701,-1.17747 1.66231,-1.24673 1.38526,-1.03895 1.52379,-1.17747 1.38526,-1.24674 0.90042,-1.73157 0.69263,-1.59305 0.69263,-1.38526 0.34632,-1.45453 0.13852,-1.45452 0.0693,-1.59305 -0.13853,-1.93937 -0.83116,-2.56273 -0.76189,-1.59305 -1.24673,-1.93937 -1.03895,-1.52378 -1.03894,-1.03895 -0.83116,-0.76189 -1.17747,-0.55411 -1.38526,-0.96968 -1.10821,-0.69263 -1.38526,-0.55411 -2.14716,-0.5541 -1.93937,-0.13853 -2.00862,0.0693 -2.0779,0.48484 -1.177469,0.34631 -1.870102,0.62337 -1.315998,0.76189 -1.315997,0.69263 -0.90042,0.69263 -1.662313,1.52379 -1.177473,1.316 -0.831157,1.59305 -0.623369,2.00863 -0.484841,1.93936 -0.27705,2.00863 -0.138528,2.00863 0.06927,1.66231 0.277051,1.45453 0.346315,0.90042 0.554104,1.24673 1.038947,1.66232 1.038945,1.52379 1.385263,1.73157 2.008627,1.80084 0.969684,0.83116 1.17747,0.62336 1.177473,0.69264 z"
       id="path830"
       inkscape:connector-curvature="0" />
  </g>
  <g
     inkscape:groupmode="layer"
     id="layer9"
     inkscape:label="Relejo"
     style="display:inline;opacity:0.83699999"
     sodipodi:insensitive="true">
    <path
       style="fill:#ffffff;stroke:#ffffff;stroke-width:0.26458332px;stroke-linecap:butt;stroke-linejoin:miter;stroke-opacity:1"
       d="m 107.70409,142.88965 v 1.38526 l 5.61031,0.20779 -0.20779,-1.59305 -2.21642,0.13853 -0.13853,-1.52379 2.35495,0.0693 v -2.21641 l -4.91771,-0.0693 0.0693,-1.66231 9.0042,-0.13853 -1.73158,-1.24673 -10.18167,0.20779 -0.0693,1.17747 1.8701,-0.0693 0.0693,1.66232 -2.83971,-0.0693 -1.316,1.316 0.62337,0.76189 6.30294,0.13852 -0.0693,1.52379 z"
       id="path914"
       inkscape:connector-curvature="0" />
  </g>
  <g
     inkscape:groupmode="layer"
     id="layer8"
     inkscape:label="Lechuga"
     sodipodi:insensitive="true"
     style="display:inline">
    <path
       style="fill:#008000;stroke:#008000;stroke-width:0.26458332px;stroke-linecap:butt;stroke-linejoin:miter;stroke-opacity:1"
       d="m 113.79921,149.88526 v 0 l 1.28136,-1.28136 0.31169,-0.72727 v -0.5541 -0.69263 l -0.48484,-0.62337 -0.41558,-0.48484 -0.20779,-0.20779 0.83116,-1.03895 0.34631,-1.52378 -0.48484,-0.7619 -0.62337,-0.5541 -0.48484,-0.34632 -0.83116,-0.5541 0.0693,1.03894 -2.35495,-0.0693 0.13853,1.52379 2.21642,-0.13853 0.20779,1.59305 -5.61031,-0.20779 v -1.38526 h 2.21642 l 0.0693,-1.52379 -6.30294,-0.13852 -0.62337,-0.76189 1.316,-1.316 -1.24673,-0.0693 -1.316,0.62337 -0.34632,0.27705 -0.69263,0.69263 -0.37382,0.64748 -0.595867,0.66852 1.246737,0.41558 1.316,0.62337 0.83116,1.03894 1.10821,0.96969 h 0.96968 l 0.69263,0.69263 0.87167,1.68857 v 0 l -0.80241,0.73563 1.38526,0.34632 1.66232,-0.34632 0.96968,0.13853 1.49562,0.40075 0.9428,0.54432 1.30179,0.64798"
       id="path99"
       inkscape:connector-curvature="0" />
    <path
       style="fill:#008000;stroke:#1a561a;stroke-width:0.26458332px;stroke-linecap:butt;stroke-linejoin:miter;stroke-opacity:1"
       d="m 114.28405,145.3139 -1.52379,0.62336 -0.41558,0.96969 h -0.48484 -1.38526 l -0.487,0.13049 -0.45547,0.26296 -0.34971,0.20191"
       id="path908"
       inkscape:connector-curvature="0" />
    <path
       style="fill:none;stroke:#1a561a;stroke-width:0.26458332px;stroke-linecap:butt;stroke-linejoin:miter;stroke-opacity:1"
       d="m 103.68687,141.22734 v 0 l 1.03887,1.52383 -0.27705,0.48484 0.90721,0.52378 h 0.68584 l 0.41695,0.72216 0.62308,0.62308 0.66909,0.3863"
       id="path910"
       inkscape:connector-curvature="0" />
  </g>
  <g
     inkscape:groupmode="layer"
     id="layer5"
     inkscape:label="Manzana"
     style="display:inline"
     sodipodi:insensitive="true">
    <path
       style="fill:#73ea26;fill-opacity:0.79215686;stroke:#73ea26;stroke-width:0.26458332px;stroke-linecap:butt;stroke-linejoin:miter;stroke-opacity:0.79215686"
       d="m 93.089552,156.60377 -1.385261,-0.48484 -0.969685,-0.48484 -0.554103,-0.41558 -0.06926,-0.69263 -0.06926,-0.83115 0.623366,-0.90042 0.761894,-0.62337 1.038945,-0.41558 0.969684,-0.34631 0.484841,0.13852 0.207788,0.34632 0.692632,0.20779 0.831157,0.83115 0.309197,0.53555 -0.863301,0.84971 -1.246735,1.17748 z"
       id="path883"
       inkscape:connector-curvature="0" />
    <path
       style="fill:#935124;fill-opacity:1;stroke:#84461d;stroke-width:0.26458332px;stroke-linecap:butt;stroke-linejoin:miter;stroke-opacity:1"
       d="m 95.652285,150.71641 h -0.969683 -0.623368 l -0.26189,0.45361 0.331155,0.72387 0.692634,0.20779 v 0 l 1.213009,-0.70033 -0.104804,-0.61567 z"
       id="path885"
       inkscape:connector-curvature="0" />
    <path
       style="fill:#73ea26;fill-opacity:0.79215686;stroke:#73ea26;stroke-width:0.26458332px;stroke-linecap:butt;stroke-linejoin:miter;stroke-opacity:0.79215686"
       d="m 101.74743,151.20126 v 0 l -0.76189,-1.24674 -0.83116,-0.41558 -0.484839,-0.62336 v -0.7619 l -1.385261,-0.62336 -0.831157,-0.0693 -1.038944,0.0693 -1.454526,0.62336 -0.484841,0.69263 -0.415578,1.8701 v 0 h 1.593051 l 0.381857,0.68494 -1.213009,0.70033 1.662306,1.24673 1.385263,-0.48484 1.731576,-0.20779 1.662312,0.27705 z"
       id="path887"
       inkscape:connector-curvature="0" />
    <path
       style="fill:#84461d;fill-opacity:1;stroke:#84461d;stroke-width:0.26458332px;stroke-linecap:butt;stroke-linejoin:miter;stroke-opacity:1"
       d="m 100.15438,149.53894 -0.99131,0.26562 -0.23239,0.86732 0.21543,0.37314 0.65667,0.17595 0.47954,-0.12849 0.16059,-0.59934 z"
       id="path889"
       inkscape:connector-curvature="0" />
    <path
       style="fill:#73ea26;fill-opacity:0.79396985;stroke:#73ea26;stroke-width:0.26458332px;stroke-linecap:butt;stroke-linejoin:miter;stroke-opacity:0.79215686"
       d="m 97.176068,142.61264 1.662313,-0.62337 h 0.969682 l 1.246737,0.41558 1.316,0.62337 0.83116,1.03894 0.41558,0.90042 -0.27706,0.34632 0.96969,-0.27705 h 0.96968 l 0.69263,0.69263 0.62337,0.76189 0.2483,0.92668 -0.41524,0.71923 -0.38717,0.0164 -2.83978,1.24674 -1.45453,1.80084 -0.76189,-1.24674 -1.316004,-1.03894 v -0.7619 l -1.385264,-0.62336 h -1.870098 l -1.454526,0.62336 -0.900419,2.56273 -0.623364,0.69264 -2.008629,0.76189 -0.391467,-1.46098 -0.0241,-0.96322 0.415579,-0.90042 0.900419,-0.41558 -0.06926,-0.7619 -0.692631,-0.83115 -0.415579,-0.41558 v -1.17747 l 0.277054,-1.38526 0.415578,-0.83116 1.038945,-0.83116 1.315997,-0.0693 0.900422,0.20779 0.90042,0.90042 z"
       id="path911"
       inkscape:connector-curvature="0" />
    <path
       style="fill:#84461d;fill-opacity:1;stroke:#84461d;stroke-width:0.26458332px;stroke-linecap:butt;stroke-linejoin:miter;stroke-opacity:1"
       d="m 97.522386,145.45242 1.246735,-0.69263 -0.900419,-0.83115 -0.623367,0.0693 -0.415578,0.83115 z"
       id="path913"
       inkscape:connector-curvature="0" />
    <path
       style="fill:#84461d;fill-opacity:1;stroke:#84461d;stroke-width:0.26458332px;stroke-linecap:butt;stroke-linejoin:miter;stroke-opacity:1"
       d="m 104.65648,147.39179 1.03862,0.27829 v 0.41434 l -0.89175,0.23894 z"
       id="path915"
       inkscape:connector-curvature="0" />
  </g>
  <g
     inkscape:groupmode="layer"
     id="layer6"
     inkscape:label="Texto"
     style="display:inline;opacity:0.697"
     sodipodi:insensitive="true">
    <text
       xml:space="preserve"
       style="font-style:normal;font-variant:normal;font-weight:bold;font-stretch:normal;font-size:17.2395916px;line-height:1.25;font-family:'Tw Cen MT';-inkscape-font-specification:'Tw Cen MT, Bold';font-variant-ligatures:normal;font-variant-caps:normal;font-variant-numeric:normal;font-feature-settings:normal;text-align:start;letter-spacing:0px;word-spacing:0px;writing-mode:lr-tb;text-anchor:start;fill:#3bc620;fill-opacity:1;stroke:none;stroke-width:0.43098152"
       x="31.563705"
       y="135.8577"
       id="text894"
       transform="scale(1.0623998,0.94126523)"><tspan
         sodipodi:role="line"
         id="tspan892"
         x="31.563705"
         y="135.8577"
         style="font-style:normal;font-variant:normal;font-weight:bold;font-stretch:normal;font-size:17.2395916px;font-family:'Tw Cen MT';-inkscape-font-specification:'Tw Cen MT, Bold';font-variant-ligatures:normal;font-variant-caps:normal;font-variant-numeric:normal;font-feature-settings:normal;text-align:start;writing-mode:lr-tb;text-anchor:start;fill:#3bc620;fill-opacity:1;stroke-width:0.43098152">COOKING WORLD</tspan></text>
  </g>
  <g
     inkscape:groupmode="layer"
     id="layer7"
     inkscape:label="slogan"
     sodipodi:insensitive="true"
     style="display:inline">
    <text
       xml:space="preserve"
       style="font-style:normal;font-variant:normal;font-weight:normal;font-stretch:normal;font-size:10.58333302px;line-height:1.25;font-family:'Tw Cen MT';-inkscape-font-specification:'Tw Cen MT, Normal';font-variant-ligatures:normal;font-variant-caps:normal;font-variant-numeric:normal;font-feature-settings:normal;text-align:start;letter-spacing:0px;word-spacing:0px;writing-mode:lr-tb;text-anchor:start;fill:#000000;fill-opacity:1;stroke:none;stroke-width:0.26458332"
       x="75.146576"
       y="182.93544"
       id="text909"><tspan
         sodipodi:role="line"
         id="tspan907"
         x="75.146576"
         y="182.93544"
         style="font-style:normal;font-variant:normal;font-weight:normal;font-stretch:normal;font-size:10.58333302px;font-family:'Tw Cen MT';-inkscape-font-specification:'Tw Cen MT, Normal';font-variant-ligatures:normal;font-variant-caps:normal;font-variant-numeric:normal;font-feature-settings:normal;text-align:start;writing-mode:lr-tb;text-anchor:start;stroke-width:0.26458332">Happy Kitchen</tspan></text>
    <text
       xml:space="preserve"
       style="font-style:normal;font-weight:normal;font-size:10.58333302px;line-height:1.25;font-family:sans-serif;letter-spacing:0px;word-spacing:0px;fill:#000000;fill-opacity:1;stroke:none;stroke-width:0.26458332"
       x="112.48321"
       y="182.93544"
       id="text921"><tspan
         sodipodi:role="line"
         id="tspan919"
         x="112.48321"
         y="192.59094"
         style="stroke-width:0.26458332"></tspan></text>
  </g>
  <g
     inkscape:groupmode="layer"
     id="layer4"
     inkscape:label="Jitomate"
     style="display:inline"
     sodipodi:insensitive="true">
    <path
       style="display:inline;fill:#e32424;fill-opacity:0.66331661;stroke:#c60606;stroke-width:0.26458332px;stroke-linecap:butt;stroke-linejoin:miter;stroke-opacity:1"
       d="m 102.57859,153.48694 -1.316,-0.55411 -1.662312,-0.27705 -1.731576,0.20779 -1.385261,0.48484 -1.38526,0.96968 -1.246735,1.17748 -0.761894,1.1082 -0.346316,0.90043 v 1.03894 l 0.20779,1.17747 0.484841,0.55411 0.277051,0.62337 0.831157,0.76189 1.10821,0.69263 1.454523,0.62337 h 1.662313 l 1.593049,-0.41558 1.45453,-0.62337 0.96968,-0.62337 1.28137,-1.28136 0.45903,-1.71314 -0.21665,-1.78465 -0.34632,-1.03894 -1.10817,-1.59305 z"
       id="path854"
       inkscape:connector-curvature="0" />
    <path
       style="display:inline;fill:#c60606;fill-opacity:1;stroke:#c60606;stroke-width:0.26458332px;stroke-linecap:butt;stroke-linejoin:miter;stroke-opacity:1"
       d="m 99.531015,155.84188 v -1.45452 l -0.554103,-0.48484 h -0.90042 l -0.416488,0.72138 0.07017,1.01019 0.415579,0.55411 0.969682,0.13852 z"
       id="path856"
       inkscape:connector-curvature="0" />
    <path
       style="display:inline;fill:#c60606;fill-opacity:1;stroke:#c60606;stroke-width:0.26458332px;stroke-linecap:butt;stroke-linejoin:miter;stroke-opacity:1"
       d="m 102.16301,156.32672 -0.83116,0.34632 -0.69262,0.20779 -0.751376,-0.4338 0.393286,-0.6812 0.65336,-0.37722 h 1.08999 z"
       id="path858"
       inkscape:connector-curvature="0" />
    <path
       style="display:inline;fill:#c60606;fill-opacity:1;stroke:#c60606;stroke-width:0.26458332px;stroke-linecap:butt;stroke-linejoin:miter;stroke-opacity:1"
       d="m 101.0548,158.68167 1.24674,0.0693 0.76189,-0.0693 0.18244,-0.68087 -0.19296,-0.72013 h -0.68211 l -0.78405,0.21008 -0.34196,0.34196 z"
       id="path860"
       inkscape:connector-curvature="0" />
    <path
       style="display:inline;fill:#c60606;fill-opacity:1;stroke:#c60606;stroke-width:0.26458332px;stroke-linecap:butt;stroke-linejoin:miter;stroke-opacity:1"
       d="m 99.808068,159.99766 0.528422,0.91525 0.49027,0.49027 0.6947,0.18615 0.6905,-0.39867 v -0.56963 l -0.78636,-0.78637 -0.45022,-0.45021 h -0.68247 z"
       id="path862"
       inkscape:connector-curvature="0" />
    <path
       style="fill:#c60606;fill-opacity:1;stroke:#c60606;stroke-width:0.26458332px;stroke-linecap:butt;stroke-linejoin:miter;stroke-opacity:1"
       d="m 96.552704,156.88083 -0.831157,-0.62337 -0.415578,-0.5541 0.519472,-0.51948 0.524568,-0.30285 0.691783,0.39939 0.34595,0.59921 0.116155,0.43349 z"
       id="path870"
       inkscape:connector-curvature="0" />
    <path
       style="fill:#c60606;fill-opacity:1;stroke:#c60606;stroke-width:0.26458332px;stroke-linecap:butt;stroke-linejoin:miter;stroke-opacity:1"
       d="m 98.076492,160.6903 -0.20779,0.90042 -0.187077,0.69818 0.117026,0.20269 h 0.901208 l 0.669628,-0.38661 v -0.58353 l -0.36807,-0.63751 z"
       id="path872"
       inkscape:connector-curvature="0" />
    <path
       style="fill:#c60606;fill-opacity:1;stroke:#c60606;stroke-width:0.26458332px;stroke-linecap:butt;stroke-linejoin:miter;stroke-opacity:1"
       d="m 96.552704,158.47388 v -0.90042 l -0.844743,-0.22635 H 94.89039 93.989971 l -0.459155,0.79528 0.206377,0.35746 0.536086,0.30951 h 1.03269 l 0.748196,0.20048 z"
       id="path876"
       inkscape:connector-curvature="0" />
    <path
       style="fill:#c60606;fill-opacity:1;stroke:#c60606;stroke-width:0.26458332px;stroke-linecap:butt;stroke-linejoin:miter;stroke-opacity:1"
       d="m 96.691229,161.17514 0.658,-0.658 v -0.79653 l -0.375684,-0.2169 h -0.905682 l -0.627925,0.62793 -0.374653,0.64892 -0.105722,0.39455 0.326546,0.5656 h 0.573963 0.623369 z"
       id="path878"
       inkscape:connector-curvature="0" />
    <path
       style="fill:#c60606;fill-opacity:1;stroke:#c60606;stroke-width:0.26458332px;stroke-linecap:butt;stroke-linejoin:miter;stroke-opacity:1"
       d="m 99.323227,157.91978 -0.484841,-0.48485 h -0.692631 l -0.296521,0.51359 v 1.07946 l 0.610129,0.35226 h 0.656074 l 0.346403,-0.59998 z"
       id="path880"
       inkscape:connector-curvature="0" />
  </g>
  <g
     inkscape:groupmode="layer"
     id="layer3"
     inkscape:label="Carne"
     style="display:inline"
     sodipodi:insensitive="true">
    <path
       style="display:inline;fill:#ba2121;fill-opacity:1;stroke:#b82323;stroke-width:0.26458332px;stroke-linecap:butt;stroke-linejoin:miter;stroke-opacity:1"
       d="m 102.85564,153.90252 -0.20779,-1.03895 0.20779,-0.69263 0.55411,-0.62337 0.5541,-0.83116 0.69263,-0.62336 0.69263,-0.41558 0.69263,-0.5541 0.41558,-0.13853 0.96968,-0.48484 1.66232,-0.34632 0.96968,0.13853 1.10821,0.41558 1.24674,0.5541 1.38526,0.62337 1.10821,0.62337 1.17747,0.83115 0.69263,0.69264 0.27705,1.1082 0.13853,0.69263 0.0693,1.10821 -0.0693,0.7619 -0.69264,1.52378 -1.17747,1.03895 -0.90042,0.96968 -1.316,0.69263 -1.17747,0.7619 -1.8701,0.27705 h -1.45452 l -1.73158,-0.62337 -0.34631,-0.41558 -0.96969,-0.76189 -0.96968,-0.96968 -0.20779,-0.48485 -0.0693,-1.17747 -0.34632,-1.03894 -0.5541,-0.7619 z"
       id="path834"
       inkscape:connector-curvature="0" />
    <path
       style="display:inline;fill:#772222;fill-opacity:1;stroke:#772222;stroke-width:0.26458332px;stroke-linecap:butt;stroke-linejoin:miter;stroke-opacity:1"
       d="m 116.56973,156.32672 -1.316,-0.90042 1.17747,-1.316 -0.90042,-0.5541 -1.03894,1.03895 -1.80084,-1.17747 1.316,-1.316 -0.20779,-1.17747 -1.10821,0.13852 -1.38526,1.52379 -2.0779,-1.87011 1.17748,-1.03894 -0.34632,-0.5541 -1.24673,0.27705 -0.69263,0.83115 -0.27706,-0.20778 -0.20779,-0.27706 -0.93936,-0.2517 -0.38309,0.66355 0.28351,0.6271 0.41558,0.41558 -1.45453,1.45452 -1.28691,-0.743 -0.3754,2.68237 0.41558,0.41558 1.45452,-0.90043 1.93937,1.52379 -1.73158,1.93937 0.96968,0.83116 1.80084,-1.80085 1.73158,1.24674 -1.10821,1.38526 0.27365,1.0213 h 0.90382 l 1.38526,-1.43688 1.24674,1.03895 0.83116,-0.62337 -1.17748,-1.52379 1.10821,-1.10821 1.66231,0.0693 z"
       id="path843"
       inkscape:connector-curvature="0" />
    <path
       style="display:inline;fill:#ba2121;fill-opacity:1;stroke:#ba2121;stroke-width:0.26458332px;stroke-linecap:butt;stroke-linejoin:miter;stroke-opacity:1"
       d="m 108.11964,152.17094 -1.24674,1.24674 1.62768,1.62768 1.69695,-1.69695 z"
       id="path845"
       inkscape:connector-curvature="0" />
    <path
       style="display:inline;fill:#ba2121;fill-opacity:1;stroke:#ba2121;stroke-width:0.26458332px;stroke-linecap:butt;stroke-linejoin:miter;stroke-opacity:1"
       d="m 111.375,154.31809 -1.45452,1.45453 1.96438,1.13414 1.24719,-1.24719 z"
       id="path847"
       inkscape:connector-curvature="0" />
    <path
       style="display:inline;fill:#772222;fill-opacity:1;stroke:#772222;stroke-width:0.26458332px;stroke-linecap:butt;stroke-linejoin:miter;stroke-opacity:1"
       d="m 102.57859,153.48694 0.41558,-1.24674 0.5541,-0.96968 0.55411,-0.69263 0.62336,-0.69263 1.24674,-0.83116 0.76189,-0.41558 0.55411,-0.27705 -1.24674,-0.20779 -0.90042,0.41558 -1.93936,0.83116 -0.7619,0.90042 -0.69263,0.90042 -0.27705,0.62336 -0.20779,0.48485 v 0.62336 l 0.62337,0.27706 z"
       id="path839"
       inkscape:connector-curvature="0" />
    <path
       style="display:inline;fill:#772222;fill-opacity:1;stroke:#772222;stroke-width:0.26458332px;stroke-linecap:butt;stroke-linejoin:miter;stroke-opacity:1"
       d="m 104.79501,158.33535 1.10821,0.96969 0.69263,0.62336 0.90042,0.69263 1.316,0.55411 1.10821,0.20779 -2.28569,0.41558 -1.38526,-0.7619 -0.83115,-0.69263 -0.62337,-0.62337 -0.41558,-0.34631 z"
       id="path841"
       inkscape:connector-curvature="0" />
  </g>
</svg>
